<?xml version="1.0" encoding="UTF-8" standalone="no"?>
<svg
   xmlns:dc="http://purl.org/dc/elements/1.1/"
   xmlns:cc="http://creativecommons.org/ns#"
   xmlns:rdf="http://www.w3.org/1999/02/22-rdf-syntax-ns#"
   xmlns:svg="http://www.w3.org/2000/svg"
   xmlns="http://www.w3.org/2000/svg"
   xmlns:sodipodi="http://sodipodi.sourceforge.net/DTD/sodipodi-0.dtd"
   xmlns:inkscape="http://www.inkscape.org/namespaces/inkscape"
   width="667.73"
   height="667.73"
   enable-background="new 0 0 626 626"
   version="1.1"
   viewBox="0 0 626 626"
   xml:space="preserve"
   id="svg32"
   sodipodi:docname="ic_launcher.svg"
   inkscape:version="0.92.3 (2405546, 2018-03-11)"><metadata
     id="metadata38"><rdf:RDF><cc:Work
         rdf:about=""><dc:format>image/svg+xml</dc:format><dc:type
           rdf:resource="http://purl.org/dc/dcmitype/StillImage" /></cc:Work></rdf:RDF></metadata><defs
     id="defs36" /><sodipodi:namedview
     pagecolor="#ffffff"
     bordercolor="#666666"
     borderopacity="1"
     objecttolerance="10"
     gridtolerance="10"
     guidetolerance="10"
     inkscape:pageopacity="0"
     inkscape:pageshadow="2"
     inkscape:window-width="1920"
     inkscape:window-height="1056"
     id="namedview34"
     showgrid="false"
     inkscape:zoom="0.24991719"
     inkscape:cx="-213.35537"
     inkscape:cy="307.8925"
     inkscape:window-x="0"
     inkscape:window-y="24"
     inkscape:window-maximized="0"
     inkscape:current-layer="g30" /><g
     transform="translate(1.95 -2.3319)"
     id="g30"><rect
       x="38.497"
       y="117.51"
       width="533.68"
       height="403.55"
       fill="#546d79"
       id="rect2" /><g
       transform="matrix(.34484 0 0 .34484 17.775 9.0754)"
       fill="#fefefe"
       id="g6"><path
         d="m331 1279-42-43 226-226-113-113-112-113 43-42 42-42 310 310-311 311z"
         id="path4" /></g><path
       d="m48.367 91.117c-15.299 0-27.614 13.78-27.614 30.901v386.63c0 17.121 12.315 30.901 27.614 30.901h525.37c15.299 0 27.614-13.78 27.614-30.901v-386.63c0-17.121-12.315-30.901-27.614-30.901zm32.625 30.968h457.13c15.299 0 27.614 13.787 27.614 30.907v324.09c0 17.121-12.315 30.907-27.614 30.907h-457.13c-15.299 0-27.621-13.787-27.621-30.907v-324.09c0-17.121 12.321-30.907 27.621-30.907z"
       fill="#94c061"
       style="paint-order:stroke fill markers"
       id="path8" /><g
       transform="matrix(0.50738,0,0,0.50738,245.78519,44.049)"
       id="g26"><g
         transform="matrix(1.6992,0,0,1.6992,-304.41,-297.68)"
         id="g24"
         style="clip-rule:evenodd;fill-rule:evenodd"><path
           d="m 414.8,207.88 c -14.804,-14.35 -32.604,-21.525 -53.399,-21.525 -21.301,0 -39.467,7.5 -54.5,22.5 -3.536,3.543 -6.652,7.26 -9.35,11.15 -2.247,3.233 -4.206,6.583 -5.875,10.05 -0.465,0.25 -0.931,0.5 -1.4,0.75 l -1.225,0.675 c -0.406,0.246 -0.815,0.487 -1.225,0.725 v -0.025 c 3.759,-9.244 9.451,-17.686 17.075,-25.325 15.042,-15.012 33.208,-22.521 54.5,-22.525 21.259,0.003 39.392,7.512 54.399,22.525 0.337,0.337 0.67,0.678 1,1.025 z m -6.1,6.075 c 0.331,0.331 0.664,0.665 1,1 3.316,3.316 6.225,6.799 8.725,10.45 7.55,11.081 11.325,23.714 11.325,37.9 0,10.513 -2.066,20.171 -6.2,28.975 -0.072,0.155 -0.147,0.314 -0.225,0.475 -0.525,1.09 -1.084,2.165 -1.675,3.225 -3.098,5.593 -7.081,10.818 -11.95,15.675 -4.908,4.92 -10.191,8.937 -15.851,12.05 -5.304,2.91 -10.937,5.027 -16.899,6.35 -1.729,0.384 -3.486,0.7 -5.275,0.95 -0.607,0.085 -1.216,0.16 -1.825,0.225 -2.757,0.317 -5.573,0.476 -8.449,0.476 -10.305,0 -19.788,-1.983 -28.45,-5.95 -2.097,-0.97 -4.146,-2.053 -6.15,-3.25 l -0.325,0.55 c -0.111,0.182 -0.22,0.365 -0.324,0.55 0.322,-0.596 0.673,-1.18 1.05,-1.75 2.078,1.124 4.203,2.124 6.375,3 7.946,3.219 16.555,4.827 25.825,4.825 3.518,0 6.942,-0.232 10.274,-0.7 0.526,-0.073 1.052,-0.156 1.575,-0.25 1.565,-0.254 3.106,-0.562 4.625,-0.925 11.948,-2.813 22.557,-8.863 31.825,-18.15 5.637,-5.626 10.078,-11.743 13.325,-18.35 0.096,-0.186 0.188,-0.369 0.274,-0.55 4.285,-8.926 6.427,-18.742 6.425,-29.45 0.002,-13.51 -3.414,-25.61 -10.25,-36.3 -2.478,-3.868 -5.403,-7.551 -8.775,-11.051 z m -113.7,89.9 c -6.065,-8.954 -9.948,-18.82 -11.65,-29.6 0.117,-0.05 0.233,-0.1 0.35,-0.15 0.426,-0.203 0.859,-0.386 1.3,-0.55 1.337,10.945 4.862,20.97 10.575,30.075 0.549,0.882 1.115,1.757 1.7,2.625 0.852,1.233 1.744,2.45 2.675,3.65 0.707,0.909 1.44,1.809 2.2,2.7 -0.044,0.047 -0.086,0.097 -0.125,0.15 -1.867,-2.054 -3.601,-4.163 -5.2,-6.325 -0.628,-0.85 -1.237,-1.708 -1.825,-2.575 z"
           id="path10"
           inkscape:connector-curvature="0"
           style="fill:#e2e2e2" /><path
           d="m 305.58,223.6 c -4.743,1.884 -9.376,4.034 -13.9,6.45 1.669,-3.466 3.628,-6.816 5.875,-10.05 2.698,-3.89 5.814,-7.606 9.35,-11.15 15.034,-15 33.2,-22.5 54.5,-22.5 20.796,0 38.596,7.175 53.399,21.525 0.335,0.318 0.668,0.643 1,0.975 7.129,7.129 12.571,14.962 16.325,23.5 4.166,9.452 6.258,19.769 6.275,30.95 -0.01,6.251 -0.669,12.234 -1.976,17.95 -1.312,5.765 -3.286,11.257 -5.925,16.475 -0.037,0.074 -0.07,0.148 -0.1,0.225 -3.637,7.117 -8.504,13.716 -14.601,19.8 -10.662,10.686 -22.903,17.577 -36.725,20.675 -0.104,0.029 -0.203,0.054 -0.3,0.075 -2.47,0.547 -4.986,0.972 -7.551,1.275 -0.869,0.103 -1.744,0.194 -2.625,0.274 -2.357,0.196 -4.758,0.297 -7.199,0.3 -11.567,-0.018 -22.209,-2.251 -31.926,-6.699 -1.929,-0.879 -3.821,-1.846 -5.675,-2.9 0.047,-0.277 0.098,-0.552 0.15,-0.825 0.015,-0.092 0.031,-0.184 0.05,-0.274 0.173,-0.857 0.39,-1.69 0.65,-2.5 0.388,-1.194 0.871,-2.336 1.449,-3.426 l 0.051,-0.125 c 0.104,-0.185 0.213,-0.368 0.324,-0.55 l 0.325,-0.55 c 2.004,1.197 4.054,2.28 6.15,3.25 8.662,3.967 18.146,5.95 28.45,5.95 2.876,0 5.692,-0.158 8.449,-0.476 0.609,-0.064 1.218,-0.14 1.825,-0.225 1.789,-0.25 3.547,-0.566 5.275,-0.95 5.963,-1.322 11.596,-3.439 16.899,-6.35 5.659,-3.113 10.942,-7.13 15.851,-12.05 4.869,-4.857 8.853,-10.082 11.95,-15.675 0.591,-1.061 1.149,-2.135 1.675,-3.225 0.077,-0.161 0.152,-0.32 0.225,-0.475 4.134,-8.804 6.2,-18.462 6.2,-28.975 0,-14.186 -3.775,-26.819 -11.325,-37.9 -2.5,-3.65 -5.408,-7.134 -8.725,-10.45 -0.336,-0.335 -0.669,-0.669 -1,-1 -13.142,-12.666 -28.908,-18.983 -47.3,-18.95 -18.9,-0.033 -35.034,6.617 -48.4,19.95 -2.754,2.768 -5.228,5.651 -7.419,8.651 z m 115.78,211.8 -3.1,2.449 c -0.2,0.134 -0.366,0.25 -0.5,0.351 -0.267,0.2 -0.517,0.366 -0.75,0.5 -1.134,0.733 -2.267,1.467 -3.4,2.2 -0.1,0.033 -0.183,0.083 -0.25,0.149 l 65.601,65.75 c 0.133,0.134 0.316,0.316 0.55,0.55 l 1.1,1.101 c 1.4,1.366 3.067,2.05 5,2.05 1.634,-0.066 3.051,-0.55 4.25,-1.45 0.301,-0.166 0.551,-0.383 0.75,-0.649 0.233,-0.167 1.25,0.399 3.051,1.699 1.767,1.334 5.116,4.817 10.05,10.45 4.866,5.533 11.833,9.533 20.899,12 -5.933,1 -14.783,1.7 -26.55,2.101 -11.121,0.349 -19.721,-2.201 -25.8,-7.65 -1.462,-1.316 -2.778,-2.8 -3.95,-4.45 l -20.1,-20.1 h 0.05 L 433.01,487.2 l -34.4,-34.45 -2,-2 c -5.3,0.967 -10.5,1.684 -15.6,2.15 -1.357,0.125 -2.8,0.233 -4.325,0.324 l 33.95,-33.925 c 0.542,0.528 1.075,1.045 1.6,1.55 4.902,4.798 8.96,8.848 12.176,12.15 -0.167,0.066 -0.284,0.167 -0.351,0.3 -0.899,0.733 -1.767,1.45 -2.6,2.15 z M 302.16,312.6 c -0.759,-0.891 -1.493,-1.791 -2.2,-2.7 -0.932,-1.2 -1.823,-2.417 -2.675,-3.65 -0.584,-0.868 -1.151,-1.743 -1.7,-2.625 -5.713,-9.105 -9.238,-19.13 -10.575,-30.075 l 2.2,-0.6 c 0.244,-0.06 0.494,-0.109 0.75,-0.15 h 0.05 c 0.633,-0.1 1.283,-0.15 1.95,-0.15 0.3,-0.066 0.617,-0.1 0.95,-0.1 0.434,0 0.867,0.034 1.3,0.1 0.501,0 0.968,0.05 1.4,0.15 h 0.025 c 0.946,7.487 3.054,14.487 6.325,21 0.793,1.581 1.651,3.131 2.575,4.65 0.569,0.929 1.161,1.845 1.775,2.75 1.07,1.567 2.211,3.101 3.425,4.6 -0.236,0.257 -0.469,0.515 -0.7,0.775 z"
           id="path12"
           inkscape:connector-curvature="0"
           style="fill:#d3d3d3" /><path
           d="m 309.9,425.32 c -0.893,-0.95 -1.776,-1.926 -2.65,-2.925 -1.955,-2.252 -3.78,-4.544 -5.475,-6.875 -12.172,-16.847 -17.497,-35.938 -15.975,-57.275 0.567,-7.866 1.983,-15.283 4.25,-22.25 0.534,-1.667 1.117,-3.3 1.75,-4.9 0.886,-2.133 1.836,-4.249 2.85,-6.35 0.017,-0.033 0.034,-0.066 0.05,-0.1 1.367,-2.634 2.85,-5.167 4.45,-7.601 0.6,-1 1.25,-2 1.95,-3 0.342,-0.488 0.692,-0.972 1.05,-1.45 l 4.875,-6.025 c 0.231,-0.26 0.464,-0.519 0.7,-0.775 1.816,-1.997 3.75,-3.931 5.8,-5.8 0.519,-0.471 1.044,-0.938 1.574,-1.4 0.167,-0.167 0.317,-0.3 0.45,-0.4 0.033,-0.1 0.101,-0.184 0.2,-0.25 3.934,-3.4 8.017,-6.383 12.25,-8.95 15.366,-9.367 32.533,-13.417 51.5,-12.15 h 0.05 c 0.601,0.033 3.55,0.4 8.851,1.1 0.1,0 0.25,0.017 0.449,0.05 1.534,0.267 3.017,0.567 4.45,0.9 0.2,0.033 0.417,0.083 0.65,0.15 9.905,2.289 19.021,6.189 27.35,11.7 -0.087,0.181 -0.179,0.364 -0.274,0.55 -7.707,-4.751 -16.065,-8.167 -25.075,-10.25 -0.233,-0.066 -0.45,-0.117 -0.65,-0.15 -1.434,-0.333 -2.916,-0.633 -4.45,-0.9 -0.199,-0.033 -0.35,-0.05 -0.449,-0.05 -5.301,-0.7 -8.25,-1.067 -8.851,-1.1 h -0.05 c -18.98,-1.281 -36.146,2.769 -51.5,12.15 -4.22,2.58 -8.303,5.563 -12.25,8.95 -0.1,0.066 -0.167,0.15 -0.2,0.25 -0.133,0.1 -0.283,0.233 -0.45,0.4 -5.433,4.733 -10.1,9.883 -14,15.45 -0.7,1 -1.35,2 -1.95,3 -1.6,2.434 -3.083,4.967 -4.45,7.601 -1.034,2.133 -2,4.283 -2.9,6.449 -0.634,1.608 -1.217,3.242 -1.75,4.9 -2.268,6.971 -3.685,14.388 -4.25,22.25 -1.451,20.351 3.324,38.659 14.325,54.925 2.144,3.148 4.519,6.224 7.125,9.226 0.08,0.091 0.163,0.183 0.25,0.274 1.057,1.209 2.132,2.384 3.225,3.525 -0.952,-0.93 -1.894,-1.889 -2.825,-2.874 z m 53.9,-109.28 c 0.185,0.165 0.368,0.332 0.55,0.5 2.034,1.934 3.551,4.05 4.551,6.351 0.1,0.199 0.199,0.383 0.3,0.55 0.91,1.683 1.594,3.44 2.05,5.274 -0.523,0.094 -1.049,0.177 -1.575,0.25 -0.054,-0.359 -0.112,-0.718 -0.175,-1.074 -0.434,-2.267 -1.2,-4.417 -2.3,-6.45 -0.101,-0.167 -0.2,-0.351 -0.3,-0.55 -0.748,-1.718 -1.781,-3.335 -3.101,-4.851 z m -33.9,34.85 c 0.853,0.762 1.744,1.445 2.675,2.05 3.235,2.124 6.943,3.324 11.125,3.6 h 0.25 c 0.166,0 0.316,0.033 0.45,0.101 h 0.3 0.3 0.3 c 1.066,0 2.101,-0.051 3.101,-0.15 0.233,-0.066 0.483,-0.1 0.75,-0.1 L 352,355.79 c 2.5,-0.633 4.967,-1.85 7.4,-3.649 0.1,-0.101 0.199,-0.167 0.3,-0.2 0.434,-0.367 0.866,-0.733 1.3,-1.101 0.033,-0.066 0.1,-0.116 0.2,-0.149 0,-0.066 0.05,-0.117 0.149,-0.15 0.101,-0.133 0.184,-0.217 0.25,-0.25 3.351,-2.926 5.684,-6.342 7,-10.25 0.881,-0.08 1.756,-0.172 2.625,-0.274 -1.101,4.872 -3.643,9.047 -7.625,12.524 -0.066,0.033 -0.149,0.117 -0.25,0.25 -0.1,0.033 -0.149,0.084 -0.149,0.15 -0.101,0.033 -0.167,0.083 -0.2,0.149 -0.434,0.367 -0.866,0.733 -1.3,1.101 -0.101,0.033 -0.2,0.1 -0.3,0.2 -2.434,1.8 -4.9,3.017 -7.4,3.649 l -2.85,0.601 c -0.267,0 -0.517,0.033 -0.75,0.1 -1,0.1 -2.034,0.15 -3.101,0.15 h -0.3 -0.3 -0.3 c -0.134,-0.067 -0.284,-0.101 -0.45,-0.101 h -0.25 c -5.009,-0.33 -9.343,-1.98 -13,-4.95 -0.979,-0.805 -1.912,-1.705 -2.799,-2.7 z m 100.6,-53.175 c 1.706,1.48 3.372,3.038 5,4.675 0.208,0.212 0.416,0.429 0.625,0.65 -1.864,-1.801 -3.772,-3.501 -5.725,-5.1 0.03,-0.076 0.063,-0.151 0.1,-0.225 z"
           id="path14"
           inkscape:connector-curvature="0"
           style="fill:#b6b6b6" /><path
           d="m 462.48,367.48 -51.85,51.825 -33.95,33.925 c -4.175,0.269 -8.983,0.427 -14.425,0.476 h -0.4 c -12.399,-1.934 -23.616,-6.184 -33.649,-12.75 -3.066,-1.967 -5.983,-4.134 -8.75,-6.5 -2.308,-1.941 -4.549,-4.024 -6.725,-6.25 -1.093,-1.142 -2.168,-2.316 -3.225,-3.525 -0.087,-0.092 -0.17,-0.184 -0.25,-0.274 -2.606,-3.002 -4.981,-6.077 -7.125,-9.226 -11.001,-16.266 -15.776,-34.574 -14.325,-54.925 0.565,-7.862 1.982,-15.279 4.25,-22.25 0.533,-1.658 1.116,-3.292 1.75,-4.9 0.9,-2.166 1.867,-4.316 2.9,-6.449 1.367,-2.634 2.85,-5.167 4.45,-7.601 0.6,-1 1.25,-2 1.95,-3 3.9,-5.566 8.566,-10.716 14,-15.45 0.167,-0.167 0.317,-0.3 0.45,-0.4 0.033,-0.1 0.101,-0.184 0.2,-0.25 3.947,-3.387 8.03,-6.37 12.25,-8.95 15.354,-9.381 32.52,-13.431 51.5,-12.15 h 0.05 c 0.601,0.033 3.55,0.4 8.851,1.1 0.1,0 0.25,0.017 0.449,0.05 1.534,0.267 3.017,0.567 4.45,0.9 0.2,0.033 0.417,0.083 0.65,0.15 9.01,2.083 17.368,5.499 25.075,10.25 -3.247,6.607 -7.688,12.724 -13.325,18.35 -9.269,9.287 -19.877,15.336 -31.825,18.15 -1.519,0.363 -3.06,0.671 -4.625,0.925 -0.456,-1.834 -1.14,-3.592 -2.05,-5.274 -0.101,-0.167 -0.2,-0.351 -0.3,-0.55 -1,-2.301 -2.517,-4.417 -4.551,-6.351 -0.182,-0.168 -0.365,-0.335 -0.55,-0.5 -0.334,-0.288 -0.676,-0.563 -1.024,-0.825 -0.246,-0.19 -0.496,-0.374 -0.75,-0.55 -3.474,-2.444 -7.615,-3.87 -12.426,-4.275 -2.301,-0.139 -4.501,0.011 -6.6,0.45 -3.92,0.822 -7.487,2.656 -10.7,5.5 -0.233,0.167 -0.45,0.351 -0.649,0.551 -1.766,1.505 -3.249,3.154 -4.45,4.949 -0.377,0.57 -0.728,1.154 -1.05,1.75 l -0.051,0.125 c -0.578,1.09 -1.062,2.231 -1.449,3.426 -0.261,0.81 -0.478,1.643 -0.65,2.5 -0.019,0.091 -0.035,0.183 -0.05,0.274 -0.053,0.273 -0.104,0.548 -0.15,0.825 -0.114,0.75 -0.198,1.517 -0.25,2.3 v 0.15 c -0.09,1.646 -0.04,3.246 0.15,4.8 0.082,0.744 0.199,1.478 0.35,2.2 0.834,3.666 2.601,7.066 5.3,10.2 0.018,0.016 0.034,0.032 0.051,0.05 h 0.1 c 0.133,0.155 0.266,0.306 0.4,0.45 0.887,0.994 1.819,1.895 2.8,2.699 3.657,2.97 7.991,4.62 13,4.95 h 0.25 c 0.166,0 0.316,0.033 0.45,0.101 h 0.3 0.3 0.3 c 1.066,0 2.101,-0.051 3.101,-0.15 0.233,-0.066 0.483,-0.1 0.75,-0.1 l 2.847,-0.601 c 2.5,-0.633 4.967,-1.85 7.4,-3.649 0.1,-0.101 0.199,-0.167 0.3,-0.2 0.434,-0.367 0.866,-0.733 1.3,-1.101 0.033,-0.066 0.1,-0.116 0.2,-0.149 0,-0.066 0.05,-0.117 0.149,-0.15 0.101,-0.133 0.184,-0.217 0.25,-0.25 3.982,-3.478 6.524,-7.652 7.625,-12.524 2.564,-0.304 5.081,-0.729 7.551,-1.275 0.097,-0.021 0.196,-0.046 0.3,-0.075 13.821,-3.098 26.063,-9.989 36.725,-20.675 6.097,-6.083 10.964,-12.683 14.601,-19.8 1.952,1.598 3.86,3.298 5.725,5.1 0.461,0.441 0.919,0.892 1.375,1.35 1.5,1.533 2.983,3.15 4.45,4.85 1.399,1.667 2.767,3.35 4.1,5.05 7.5,9.934 12.584,20.617 15.25,32.05 0.566,2.601 1.05,5.217 1.45,7.851 0.033,0.467 0.033,0.883 0,1.25 0.284,3.789 0.192,7.798 -0.276,12.022 z"
           id="path16"
           inkscape:connector-curvature="0"
           style="fill:#a3a3a3" /><path
           d="m 474.18,453.9 h -0.024 v 0.05 c -0.367,0.066 -0.75,0.033 -1.15,-0.101 -0.192,-0.096 -0.359,-0.229 -0.5,-0.399 -0.115,-0.131 -0.216,-0.281 -0.3,-0.45 v -0.15 c -0.134,-0.333 -0.134,-0.683 0,-1.05 l -0.05,0.101 6.949,-25.551 c 0.101,-0.399 0.051,-0.816 -0.149,-1.25 -0.167,-0.366 -0.417,-0.683 -0.75,-0.949 -0.134,-0.034 -8.167,-8.784 -24.101,-26.25 1.967,-3.834 4.051,-10.117 6.25,-18.851 0.32,-1.295 0.612,-2.57 0.875,-3.825 -0.005,1.095 -0.005,2.328 0,3.7 0.032,6.125 -1.677,13.117 -5.125,20.976 15.934,17.466 23.967,26.216 24.101,26.25 0.333,0.267 0.583,0.583 0.75,0.949 0.2,0.434 0.25,0.851 0.149,1.25 l -5.975,21.976 -0.975,3.575 0.05,-0.101 c -0.012,0.032 -0.02,0.065 -0.025,0.1 z m 53.775,19.45 c 6.564,5.904 9.681,14.588 9.35,26.051 -0.467,13.733 -1.383,23.517 -2.75,29.35 -0.233,1.167 -0.767,2.25 -1.6,3.25 l -0.15,0.3 c -0.333,0.233 -0.649,0.45 -0.95,0.65 -0.8,0.533 -1.666,0.866 -2.6,1 -0.8,0.2 -1.684,0.399 -2.65,0.6 -5.933,1 -14.783,1.7 -26.55,2.101 -12.402,0.389 -21.669,-2.827 -27.8,-9.65 6.079,5.449 14.679,7.999 25.8,7.65 11.767,-0.4 20.617,-1.101 26.55,-2.101 0.967,-0.2 1.851,-0.399 2.65,-0.6 0.934,-0.134 1.8,-0.467 2.6,-1 0.301,-0.2 0.617,-0.417 0.95,-0.65 l 0.15,-0.3 c 0.833,-1 1.366,-2.083 1.6,-3.25 1.367,-5.833 2.283,-15.616 2.75,-29.35 0.296,-10.23 -2.154,-18.247 -7.35,-24.051 z m -31.125,3.225 c -0.357,0.039 -0.698,0.014 -1.025,-0.075 -0.333,-0.2 -0.6,-0.467 -0.8,-0.8 -0.066,-0.066 -0.1,-0.15 -0.1,-0.25 -0.134,-0.334 -0.15,-0.667 -0.051,-1 l 0.051,-0.05 6.75,-25.051 c 0.1,-0.433 0.083,-0.85 -0.051,-1.25 1.423,1.927 2.105,3.01 2.051,3.25 l -6.75,25.051 -0.051,0.05 c -0.011,0.039 -0.019,0.081 -0.024,0.125 z M 398.605,452.75 c -0.2,0.036 -0.399,0.069 -0.6,0.1 v -0.699 z"
           id="path18"
           inkscape:connector-curvature="0"
           style="fill:#8f8f8f" /><path
           d="m 410.62,419.3 51.85,-51.825 c -0.286,2.505 -0.703,5.089 -1.25,7.75 -0.263,1.255 -0.555,2.53 -0.875,3.825 -2.199,8.733 -4.283,15.017 -6.25,18.851 15.934,17.466 23.967,26.216 24.101,26.25 0.333,0.267 0.583,0.583 0.75,0.949 0.2,0.434 0.25,0.851 0.149,1.25 l -6.95,25.55 0.05,-0.101 c -0.134,0.367 -0.134,0.717 0,1.05 V 453 c 0.084,0.169 0.185,0.319 0.3,0.45 0.141,0.17 0.308,0.304 0.5,0.399 0.4,0.134 0.783,0.167 1.15,0.101 v -0.05 h 0.024 l 25.325,-6.65 c 0.434,-0.233 0.833,-0.217 1.2,0.05 0.333,0.167 0.633,0.434 0.899,0.8 0.134,0.4 0.15,0.817 0.051,1.25 l -6.749,25.05 -0.051,0.05 c -0.1,0.333 -0.083,0.666 0.051,1 0,0.1 0.033,0.184 0.1,0.25 0.2,0.333 0.467,0.6 0.8,0.8 0.327,0.089 0.668,0.114 1.025,0.075 0.039,-0.01 0.081,-0.018 0.125,-0.025 v 0.101 l 0.1,-0.101 26.65,-7 c 1.576,1.142 2.992,2.408 4.25,3.8 5.195,5.805 7.646,13.821 7.35,24.051 -0.467,13.733 -1.383,23.517 -2.75,29.35 -0.233,1.167 -0.767,2.25 -1.6,3.25 l -0.15,0.3 c -0.333,0.233 -0.649,0.45 -0.95,0.65 -0.8,0.533 -1.666,0.866 -2.6,1 -0.8,0.2 -1.684,0.399 -2.65,0.6 -21.5,-21.6 -32.816,-32.934 -33.949,-34 L 430.545,438.2 c -0.2,-0.101 -0.366,-0.233 -0.5,-0.4 l -5.2,-5.25 -0.149,0.15 c -0.101,0.066 -0.2,0.166 -0.3,0.3 -3.216,-3.303 -7.273,-7.353 -12.176,-12.15 -0.525,-0.505 -1.058,-1.022 -1.6,-1.55 z m 10.725,16.1 0.101,0.05 h -0.101 z"
           id="path20"
           inkscape:connector-curvature="0"
           style="fill:#dbdbdb" /><path
           d="m 421.35,435.4 v 0.05 h 0.101 c 0.833,-0.7 1.7,-1.417 2.6,-2.15 0.066,-0.133 0.184,-0.233 0.351,-0.3 0.1,-0.134 0.199,-0.233 0.3,-0.3 l 0.149,-0.15 5.2,5.25 c 0.134,0.167 0.3,0.3 0.5,0.4 l 60.101,60.35 c 1.133,1.066 12.449,12.4 33.949,34 -9.066,-2.467 -16.033,-6.467 -20.899,-12 -4.934,-5.633 -8.283,-9.116 -10.05,-10.45 -1.801,-1.3 -2.817,-1.866 -3.051,-1.699 -0.199,0.267 -0.449,0.483 -0.75,0.649 -1.199,0.9 -2.616,1.384 -4.25,1.45 -1.933,0 -3.6,-0.684 -5,-2.05 l -1.1,-1.101 c -0.233,-0.233 -0.417,-0.416 -0.55,-0.55 l -65.601,-65.75 c 0.067,-0.066 0.15,-0.116 0.25,-0.149 1.134,-0.733 2.267,-1.467 3.4,-2.2 0.233,-0.134 0.483,-0.3 0.75,-0.5 0.134,-0.101 0.3,-0.217 0.5,-0.351 z"
           id="path22"
           inkscape:connector-curvature="0"
           style="fill:#c8c8c8" /></g></g><path
       d="m246.52 462.44-0.26957-27.805h133.73v27.432l-66.179 1.0287c-14.538 0.17374 0 0-67.281-0.65503z"
       fill="#fefefe"
       id="path28" /></g></svg>